<mxfile host="app.diagrams.net" agent="Mozilla/5.0 (Windows NT 10.0; Win64; x64) AppleWebKit/537.36 (KHTML, like Gecko) Chrome/131.0.0.0 Safari/537.36" version="24.9.1">
  <diagram name="Page-1" id="929967ad-93f9-6ef4-fab6-5d389245f69c">
    <mxGraphModel dx="1680" dy="987" grid="1" gridSize="10" guides="1" tooltips="1" connect="1" arrows="1" fold="1" page="1" pageScale="1.5" pageWidth="1169" pageHeight="826" background="none" math="0" shadow="0">
      <root>
        <mxCell id="0" style=";html=1;" />
        <mxCell id="1" style=";html=1;" parent="0" />
        <mxCell id="1672d66443f91eb5-23" value="EV Charging Station Management System" style="text;strokeColor=none;fillColor=none;html=1;fontSize=24;fontStyle=1;verticalAlign=middle;align=center;" parent="1" vertex="1">
          <mxGeometry x="120" y="40" width="1510" height="40" as="geometry" />
        </mxCell>
        <mxCell id="SpO1fs5H4Cd0-aY7g7zC-1" value="Actor" style="shape=umlActor;verticalLabelPosition=bottom;verticalAlign=top;html=1;outlineConnect=0;" vertex="1" parent="1">
          <mxGeometry x="320" y="380" width="70" height="120" as="geometry" />
        </mxCell>
        <mxCell id="SpO1fs5H4Cd0-aY7g7zC-2" value="Actor" style="shape=umlActor;verticalLabelPosition=bottom;verticalAlign=top;html=1;outlineConnect=0;" vertex="1" parent="1">
          <mxGeometry x="1380" y="120" width="100" height="110" as="geometry" />
        </mxCell>
        <mxCell id="SpO1fs5H4Cd0-aY7g7zC-3" value="Actor" style="shape=umlActor;verticalLabelPosition=bottom;verticalAlign=top;html=1;outlineConnect=0;" vertex="1" parent="1">
          <mxGeometry x="1390" y="619" width="80" height="120" as="geometry" />
        </mxCell>
        <mxCell id="SpO1fs5H4Cd0-aY7g7zC-5" value="&lt;div&gt;&lt;br&gt;&lt;/div&gt;&lt;div&gt;&lt;br&gt;&lt;/div&gt;" style="whiteSpace=wrap;html=1;aspect=fixed;fillColor=none;" vertex="1" parent="1">
          <mxGeometry x="510" y="89" width="741" height="741" as="geometry" />
        </mxCell>
        <mxCell id="SpO1fs5H4Cd0-aY7g7zC-8" value="&lt;font style=&quot;font-size: 20px;&quot;&gt;Find Station&lt;/font&gt;" style="ellipse;whiteSpace=wrap;html=1;" vertex="1" parent="1">
          <mxGeometry x="770" y="120" width="210" height="100" as="geometry" />
        </mxCell>
        <mxCell id="SpO1fs5H4Cd0-aY7g7zC-10" value="&lt;font style=&quot;font-size: 20px;&quot;&gt;Manage Notifications&lt;/font&gt;" style="ellipse;whiteSpace=wrap;html=1;" vertex="1" parent="1">
          <mxGeometry x="762.5" y="580" width="225" height="110" as="geometry" />
        </mxCell>
        <mxCell id="SpO1fs5H4Cd0-aY7g7zC-12" value="&lt;font style=&quot;font-size: 20px;&quot;&gt;Database Management&lt;/font&gt;" style="ellipse;whiteSpace=wrap;html=1;" vertex="1" parent="1">
          <mxGeometry x="757.5" y="700" width="227.5" height="110" as="geometry" />
        </mxCell>
        <mxCell id="SpO1fs5H4Cd0-aY7g7zC-14" value="&lt;font style=&quot;font-size: 20px;&quot;&gt;Generate Reports&lt;/font&gt;" style="ellipse;whiteSpace=wrap;html=1;" vertex="1" parent="1">
          <mxGeometry x="757.5" y="460" width="212.5" height="110" as="geometry" />
        </mxCell>
        <mxCell id="SpO1fs5H4Cd0-aY7g7zC-21" value="&lt;font style=&quot;font-size: 20px;&quot;&gt;Manage Station&lt;/font&gt;" style="ellipse;whiteSpace=wrap;html=1;" vertex="1" parent="1">
          <mxGeometry x="768.75" y="230" width="212.5" height="100" as="geometry" />
        </mxCell>
        <mxCell id="SpO1fs5H4Cd0-aY7g7zC-22" value="&lt;font style=&quot;font-size: 20px;&quot;&gt;User Feedback&lt;/font&gt;" style="ellipse;whiteSpace=wrap;html=1;" vertex="1" parent="1">
          <mxGeometry x="768.125" y="340" width="213.75" height="110" as="geometry" />
        </mxCell>
        <mxCell id="SpO1fs5H4Cd0-aY7g7zC-23" value="&lt;font style=&quot;font-size: 20px;&quot;&gt;EV User&lt;/font&gt;" style="rounded=0;whiteSpace=wrap;html=1;" vertex="1" parent="1">
          <mxGeometry x="290" y="500" width="120" height="60" as="geometry" />
        </mxCell>
        <mxCell id="SpO1fs5H4Cd0-aY7g7zC-24" value="&lt;font style=&quot;font-size: 20px;&quot;&gt;Government&lt;/font&gt;" style="rounded=0;whiteSpace=wrap;html=1;" vertex="1" parent="1">
          <mxGeometry x="1370" y="739" width="120" height="60" as="geometry" />
        </mxCell>
        <mxCell id="SpO1fs5H4Cd0-aY7g7zC-25" value="&lt;font style=&quot;font-size: 20px;&quot;&gt;Admin&lt;/font&gt;" style="rounded=0;whiteSpace=wrap;html=1;" vertex="1" parent="1">
          <mxGeometry x="1370" y="230" width="120" height="60" as="geometry" />
        </mxCell>
        <mxCell id="SpO1fs5H4Cd0-aY7g7zC-28" value="" style="endArrow=none;html=1;rounded=0;entryX=0.048;entryY=0.652;entryDx=0;entryDy=0;entryPerimeter=0;" edge="1" parent="1" source="SpO1fs5H4Cd0-aY7g7zC-1" target="SpO1fs5H4Cd0-aY7g7zC-8">
          <mxGeometry width="50" height="50" relative="1" as="geometry">
            <mxPoint x="380" y="460" as="sourcePoint" />
            <mxPoint x="480" y="390" as="targetPoint" />
            <Array as="points" />
          </mxGeometry>
        </mxCell>
        <mxCell id="SpO1fs5H4Cd0-aY7g7zC-29" value="" style="endArrow=none;html=1;rounded=0;exitX=1;exitY=0.3333333333333333;exitDx=0;exitDy=0;exitPerimeter=0;" edge="1" parent="1" source="SpO1fs5H4Cd0-aY7g7zC-1" target="SpO1fs5H4Cd0-aY7g7zC-22">
          <mxGeometry width="50" height="50" relative="1" as="geometry">
            <mxPoint x="810" y="540" as="sourcePoint" />
            <mxPoint x="860" y="490" as="targetPoint" />
          </mxGeometry>
        </mxCell>
        <mxCell id="SpO1fs5H4Cd0-aY7g7zC-30" value="" style="endArrow=none;html=1;rounded=0;exitX=0;exitY=0.3333333333333333;exitDx=0;exitDy=0;exitPerimeter=0;entryX=1;entryY=0.5;entryDx=0;entryDy=0;" edge="1" parent="1" source="SpO1fs5H4Cd0-aY7g7zC-2" target="SpO1fs5H4Cd0-aY7g7zC-21">
          <mxGeometry width="50" height="50" relative="1" as="geometry">
            <mxPoint x="810" y="540" as="sourcePoint" />
            <mxPoint x="860" y="490" as="targetPoint" />
          </mxGeometry>
        </mxCell>
        <mxCell id="SpO1fs5H4Cd0-aY7g7zC-31" value="" style="endArrow=none;html=1;rounded=0;" edge="1" parent="1" source="SpO1fs5H4Cd0-aY7g7zC-14">
          <mxGeometry width="50" height="50" relative="1" as="geometry">
            <mxPoint x="810" y="540" as="sourcePoint" />
            <mxPoint x="1380" y="160" as="targetPoint" />
          </mxGeometry>
        </mxCell>
        <mxCell id="SpO1fs5H4Cd0-aY7g7zC-32" value="" style="endArrow=none;html=1;rounded=0;exitX=0;exitY=0.3333333333333333;exitDx=0;exitDy=0;exitPerimeter=0;entryX=1;entryY=0.5;entryDx=0;entryDy=0;" edge="1" parent="1" source="SpO1fs5H4Cd0-aY7g7zC-2" target="SpO1fs5H4Cd0-aY7g7zC-12">
          <mxGeometry width="50" height="50" relative="1" as="geometry">
            <mxPoint x="810" y="540" as="sourcePoint" />
            <mxPoint x="860" y="490" as="targetPoint" />
          </mxGeometry>
        </mxCell>
        <mxCell id="SpO1fs5H4Cd0-aY7g7zC-33" value="" style="endArrow=none;html=1;rounded=0;exitX=0;exitY=0.3333333333333333;exitDx=0;exitDy=0;exitPerimeter=0;" edge="1" parent="1" source="SpO1fs5H4Cd0-aY7g7zC-3" target="SpO1fs5H4Cd0-aY7g7zC-10">
          <mxGeometry width="50" height="50" relative="1" as="geometry">
            <mxPoint x="810" y="540" as="sourcePoint" />
            <mxPoint x="860" y="490" as="targetPoint" />
          </mxGeometry>
        </mxCell>
        <mxCell id="SpO1fs5H4Cd0-aY7g7zC-34" value="" style="endArrow=none;html=1;rounded=0;entryX=0;entryY=0.3333333333333333;entryDx=0;entryDy=0;entryPerimeter=0;" edge="1" parent="1" target="SpO1fs5H4Cd0-aY7g7zC-2">
          <mxGeometry width="50" height="50" relative="1" as="geometry">
            <mxPoint x="990" y="640" as="sourcePoint" />
            <mxPoint x="860" y="490" as="targetPoint" />
          </mxGeometry>
        </mxCell>
        <mxCell id="SpO1fs5H4Cd0-aY7g7zC-35" value="" style="endArrow=none;html=1;rounded=0;" edge="1" parent="1" source="SpO1fs5H4Cd0-aY7g7zC-22">
          <mxGeometry width="50" height="50" relative="1" as="geometry">
            <mxPoint x="810" y="540" as="sourcePoint" />
            <mxPoint x="1380" y="160" as="targetPoint" />
          </mxGeometry>
        </mxCell>
        <mxCell id="SpO1fs5H4Cd0-aY7g7zC-36" value="" style="endArrow=none;html=1;rounded=0;exitX=0;exitY=0.3333333333333333;exitDx=0;exitDy=0;exitPerimeter=0;" edge="1" parent="1" source="SpO1fs5H4Cd0-aY7g7zC-3">
          <mxGeometry width="50" height="50" relative="1" as="geometry">
            <mxPoint x="810" y="540" as="sourcePoint" />
            <mxPoint x="980" y="280" as="targetPoint" />
          </mxGeometry>
        </mxCell>
      </root>
    </mxGraphModel>
  </diagram>
</mxfile>
